<mxfile host="app.diagrams.net" agent="Mozilla/5.0 (Windows NT 10.0; Win64; x64) AppleWebKit/537.36 (KHTML, like Gecko) Chrome/135.0.0.0 Safari/537.36" version="26.3.0">
  <diagram name="Página-1" id="qzpxGvClnJDpzXjEQYKM">
    <mxGraphModel dx="872" dy="439" grid="1" gridSize="10" guides="1" tooltips="1" connect="1" arrows="1" fold="1" page="1" pageScale="1" pageWidth="1169" pageHeight="827" math="0" shadow="0">
      <root>
        <mxCell id="0" />
        <mxCell id="1" parent="0" />
        <mxCell id="g3_0q6SkZqDwPjlIJeP6-8" value="" style="edgeStyle=orthogonalEdgeStyle;rounded=0;orthogonalLoop=1;jettySize=auto;html=1;" edge="1" parent="1" source="g3_0q6SkZqDwPjlIJeP6-1" target="g3_0q6SkZqDwPjlIJeP6-2">
          <mxGeometry relative="1" as="geometry" />
        </mxCell>
        <mxCell id="g3_0q6SkZqDwPjlIJeP6-1" value="&lt;div&gt;SENSOR ESP32&lt;/div&gt;&lt;div&gt;&lt;br&gt;&lt;/div&gt;" style="ellipse;whiteSpace=wrap;html=1;" vertex="1" parent="1">
          <mxGeometry x="120" y="150" width="120" height="80" as="geometry" />
        </mxCell>
        <mxCell id="g3_0q6SkZqDwPjlIJeP6-9" value="" style="edgeStyle=orthogonalEdgeStyle;rounded=0;orthogonalLoop=1;jettySize=auto;html=1;" edge="1" parent="1" source="g3_0q6SkZqDwPjlIJeP6-2" target="g3_0q6SkZqDwPjlIJeP6-3">
          <mxGeometry relative="1" as="geometry" />
        </mxCell>
        <mxCell id="g3_0q6SkZqDwPjlIJeP6-2" value="&lt;div&gt;API PYTHON&amp;nbsp;&amp;nbsp;&lt;/div&gt;&lt;div&gt;(FLASK)&lt;/div&gt;&lt;div&gt;&lt;br&gt;&lt;/div&gt;" style="rounded=1;whiteSpace=wrap;html=1;" vertex="1" parent="1">
          <mxGeometry x="320" y="160" width="120" height="60" as="geometry" />
        </mxCell>
        <mxCell id="g3_0q6SkZqDwPjlIJeP6-10" value="" style="edgeStyle=orthogonalEdgeStyle;rounded=0;orthogonalLoop=1;jettySize=auto;html=1;" edge="1" parent="1" source="g3_0q6SkZqDwPjlIJeP6-3" target="g3_0q6SkZqDwPjlIJeP6-4">
          <mxGeometry relative="1" as="geometry" />
        </mxCell>
        <mxCell id="g3_0q6SkZqDwPjlIJeP6-3" value="&lt;div&gt;AWS RDS&amp;nbsp;&amp;nbsp;&lt;/div&gt;&lt;div&gt;(BANCO DE DADOS)&lt;/div&gt;&lt;div&gt;&lt;br&gt;&lt;/div&gt;" style="shape=cylinder3;whiteSpace=wrap;html=1;boundedLbl=1;backgroundOutline=1;size=15;" vertex="1" parent="1">
          <mxGeometry x="530" y="140" width="110" height="100" as="geometry" />
        </mxCell>
        <mxCell id="g3_0q6SkZqDwPjlIJeP6-11" value="" style="edgeStyle=orthogonalEdgeStyle;rounded=0;orthogonalLoop=1;jettySize=auto;html=1;" edge="1" parent="1" source="g3_0q6SkZqDwPjlIJeP6-4" target="g3_0q6SkZqDwPjlIJeP6-5">
          <mxGeometry relative="1" as="geometry" />
        </mxCell>
        <mxCell id="g3_0q6SkZqDwPjlIJeP6-4" value="DASHBOARD  &#xa;(POWER BI / GRAFANA)" style="rounded=0;whiteSpace=wrap;html=1;" vertex="1" parent="1">
          <mxGeometry x="525" y="295" width="120" height="60" as="geometry" />
        </mxCell>
        <mxCell id="g3_0q6SkZqDwPjlIJeP6-12" value="" style="edgeStyle=orthogonalEdgeStyle;rounded=0;orthogonalLoop=1;jettySize=auto;html=1;" edge="1" parent="1" source="g3_0q6SkZqDwPjlIJeP6-5" target="g3_0q6SkZqDwPjlIJeP6-6">
          <mxGeometry relative="1" as="geometry" />
        </mxCell>
        <mxCell id="g3_0q6SkZqDwPjlIJeP6-5" value="&lt;div&gt;RELATÓRIOS&amp;nbsp;&amp;nbsp;&lt;/div&gt;&lt;div&gt;AUTOMÁTICOS&lt;/div&gt;&lt;div&gt;&lt;br&gt;&lt;/div&gt;" style="rounded=0;whiteSpace=wrap;html=1;direction=south;" vertex="1" parent="1">
          <mxGeometry x="320" y="275" width="100" height="100" as="geometry" />
        </mxCell>
        <mxCell id="g3_0q6SkZqDwPjlIJeP6-6" value="&lt;div&gt;AWS RDS&amp;nbsp;&amp;nbsp;&lt;/div&gt;&lt;div&gt;(BANCO DE DADOS)&lt;/div&gt;&lt;div&gt;&lt;br&gt;&lt;/div&gt;" style="shape=cylinder3;whiteSpace=wrap;html=1;boundedLbl=1;backgroundOutline=1;size=15;" vertex="1" parent="1">
          <mxGeometry x="135" y="270" width="90" height="110" as="geometry" />
        </mxCell>
        <mxCell id="g3_0q6SkZqDwPjlIJeP6-7" value="" style="html=1;verticalLabelPosition=bottom;align=center;labelBackgroundColor=#ffffff;verticalAlign=top;strokeWidth=2;strokeColor=#0080F0;shadow=0;dashed=0;shape=mxgraph.ios7.icons.wifi;pointerEvents=1" vertex="1" parent="1">
          <mxGeometry x="165.15" y="100" width="29.7" height="21" as="geometry" />
        </mxCell>
      </root>
    </mxGraphModel>
  </diagram>
</mxfile>
